<svg id="Camada_1" data-name="Camada 1" xmlns="http://www.w3.org/2000/svg" viewBox="0 0 298.93 81.88"><defs><style>.cls-1{fill:#662d91;}.cls-2{fill:#39b54a;}</style></defs><path class="cls-1" d="M55.18,52.47h4.55a.79.79,0,0,1,.89.9v50.78a24.57,24.57,0,0,1-.76,6,8.68,8.68,0,0,1-2,3.79,7.56,7.56,0,0,1-3.61,2,22.16,22.16,0,0,1-5.43.57,21.43,21.43,0,0,1-6.15-.71c-.41-.12-.62-.32-.62-.62l.71-3.74c.12-.36.39-.48.8-.36l2.14.36a15.33,15.33,0,0,0,2.14.17,13.55,13.55,0,0,0,3.16-.31,3.28,3.28,0,0,0,2-1.38,8.06,8.06,0,0,0,1-3.21,41.74,41.74,0,0,0,.31-5.79V53.37A.79.79,0,0,1,55.18,52.47Zm-1.33-11V35.64a.79.79,0,0,1,.89-.9h5.52a.79.79,0,0,1,.89.9v5.79a.79.79,0,0,1-.89.89H54.74A.79.79,0,0,1,53.85,41.43Z" transform="translate(-42 -34.65)"/><path class="cls-1" d="M112.65,88.07a21.21,21.21,0,0,1-3.83,8.33,12.35,12.35,0,0,1-5.66,3.61,30.42,30.42,0,0,1-8.68,1,29.1,29.1,0,0,1-8.56-1,11.87,11.87,0,0,1-5.43-3.61,21.49,21.49,0,0,1-3.88-8.33,46.9,46.9,0,0,1-1.47-12.16,44,44,0,0,1,1.43-11.85,19.37,19.37,0,0,1,3.92-7.84,12.19,12.19,0,0,1,5.61-3.61,29.25,29.25,0,0,1,8.55-1,29.66,29.66,0,0,1,8.65,1,12.25,12.25,0,0,1,5.61,3.61,20.61,20.61,0,0,1,3.79,7.88,45,45,0,0,1,1.38,11.81A48.3,48.3,0,0,1,112.65,88.07ZM82.54,86.69q1,4.71,3,6.77a7,7,0,0,0,3,1.83,12.17,12.17,0,0,0,2.4.44c1,.09,2.11.13,3.48.13a23.3,23.3,0,0,0,6.19-.57,7.48,7.48,0,0,0,3.07-1.83q2-2.05,2.94-6.77a52.39,52.39,0,0,0,1-10.69,51.37,51.37,0,0,0-.93-10.47c-.63-2.94-1.62-5.1-3-6.46A7.47,7.47,0,0,0,102.45,58a6.34,6.34,0,0,0-1.69-.76,11.85,11.85,0,0,0-2.45-.44c-1-.09-2.14-.14-3.57-.14s-2.64.05-3.65.14a12,12,0,0,0-2.54.44,7.4,7.4,0,0,0-1.74.76,7,7,0,0,0-1.33,1.07,13.42,13.42,0,0,0-2.94,6.46,48.4,48.4,0,0,0-1,10.47A52.39,52.39,0,0,0,82.54,86.69Z" transform="translate(-42 -34.65)"/><path class="cls-1" d="M135.33,100.54q-3.62-.5-6.55-1.2c-.59-.18-.89-.48-.89-.89V35.55a.79.79,0,0,1,.89-.9h4.55a.79.79,0,0,1,.89.9V51.67c0,.48.2.72.62.72a25.89,25.89,0,0,0,3.47-.41,38.66,38.66,0,0,1,5.89-.4,28.86,28.86,0,0,1,9.31,1.3,13.29,13.29,0,0,1,6.1,4.09,17.1,17.1,0,0,1,3.3,7.35,53.06,53.06,0,0,1,1,11A59.17,59.17,0,0,1,163,86.42a20.38,20.38,0,0,1-3.25,8.06,14.18,14.18,0,0,1-6.37,4.9A27.58,27.58,0,0,1,143,101,56.81,56.81,0,0,1,135.33,100.54Zm3.16-43.61a23.49,23.49,0,0,0-3.47.62,1.24,1.24,0,0,0-.8,1.34V94.35a.94.94,0,0,0,.89,1,19.89,19.89,0,0,0,3.61.53Q141,96,143,96A19.81,19.81,0,0,0,150.16,95a9,9,0,0,0,4.37-3.47,15.28,15.28,0,0,0,2.18-6.28,65.16,65.16,0,0,0,.58-9.49,56,56,0,0,0-.62-9.09,14.52,14.52,0,0,0-2.18-5.88,8.4,8.4,0,0,0-4.24-3.16,20.6,20.6,0,0,0-6.77-.94A41.83,41.83,0,0,0,138.49,56.93Z" transform="translate(-42 -34.65)"/><path class="cls-1" d="M179.61,100.81a36.43,36.43,0,0,1-4.85-.67.63.63,0,0,1-.45-.62l.36-4.19c0-.36.21-.48.62-.36a47.3,47.3,0,0,0,9.36,1,36.23,36.23,0,0,0,4.68-.26,7.44,7.44,0,0,0,3.07-1,4.31,4.31,0,0,0,1.69-2.14,10.06,10.06,0,0,0,.54-3.61,9.09,9.09,0,0,0-.4-2.8,8,8,0,0,0-1.43-2.45A20.52,20.52,0,0,0,190,80.94c-1.18-1-2.73-2.15-4.63-3.52s-3.5-2.58-4.81-3.65a22.87,22.87,0,0,1-3.21-3.12,10,10,0,0,1-1.82-3.25,12.74,12.74,0,0,1-.58-4.06q0-6.14,3.52-9t11.18-2.81q3.12,0,5.52.18a34.31,34.31,0,0,1,4.19.54.62.62,0,0,1,.44.62l-.35,4.19c0,.35-.21.47-.63.35-1.18-.23-2.49-.43-3.92-.58s-2.88-.22-4.36-.22a17.53,17.53,0,0,0-7.08,1.12c-1.64.74-2.45,2.42-2.45,5a9,9,0,0,0,.44,3,7.48,7.48,0,0,0,1.47,2.4,18.41,18.41,0,0,0,2.72,2.45c1.13.87,2.55,1.86,4.27,3,1.91,1.37,3.54,2.6,4.91,3.7a19.86,19.86,0,0,1,3.34,3.34,12,12,0,0,1,1.91,3.61,14,14,0,0,1,.63,4.41q0,6.77-3.57,9.53c-2.37,1.84-6.24,2.76-11.58,2.76C183.46,101,181.49,101,179.61,100.81Z" transform="translate(-42 -34.65)"/><path class="cls-2" d="M235.7,99.25V70.38a5.06,5.06,0,0,0-.84-3.29,3.92,3.92,0,0,0-3.08-1c-.59,0-1.13,0-1.6,0a9,9,0,0,0-1.16.13.73.73,0,0,0-.71.81V99.25a.79.79,0,0,1-.89.89H210.31a.79.79,0,0,1-.89-.89V54.35c0-.48.3-.78.89-.9,1.19-.17,2.67-.37,4.45-.57s3.72-.42,5.8-.63,4.21-.37,6.41-.49,4.31-.18,6.33-.18a40.26,40.26,0,0,1,10,1.07A15.82,15.82,0,0,1,249.91,56a13.05,13.05,0,0,1,3.7,5.75,26.74,26.74,0,0,1,1.16,8.38V99.25a.79.79,0,0,1-.89.89H236.59A.79.79,0,0,1,235.7,99.25Z" transform="translate(-42 -34.65)"/><path class="cls-2" d="M301.46,99.34c-1.19.3-2.56.58-4.1.85s-3.21.47-5,.62-3.59.22-5.44.22A44.68,44.68,0,0,1,276,99.83a18.56,18.56,0,0,1-7.93-4,17.37,17.37,0,0,1-4.81-7.53,36.24,36.24,0,0,1-1.61-11.63,35.73,35.73,0,0,1,1.83-12.43,18.43,18.43,0,0,1,5.08-7.66,18.08,18.08,0,0,1,7.66-3.88,40.73,40.73,0,0,1,9.58-1.07,32.78,32.78,0,0,1,8.77,1A13.75,13.75,0,0,1,300.7,56a14.71,14.71,0,0,1,3.65,6.32A33,33,0,0,1,305.56,72q0,1.61-.18,4c-.12,1.57-.27,3-.45,4.14a1.47,1.47,0,0,1-.58,1,3,3,0,0,1-1.38.22H280.88q-.54,0-.54.36A4.82,4.82,0,0,0,282.26,86c1.27.86,3.34,1.29,6.19,1.29,1.25,0,2.51,0,3.79-.13s2.54-.2,3.78-.31,2.41-.26,3.48-.41,2-.31,2.85-.49a1.93,1.93,0,0,1,.76,0,.56.56,0,0,1,.4.36l1.24,11.41c.06.29-.11.53-.53.71A16.65,16.65,0,0,1,301.46,99.34ZM280.25,71.81H289a1,1,0,0,0,.67-.22,2,2,0,0,0,.23-1.21q0-1.34-.09-2.58a6,6,0,0,0-.54-2.18,3.6,3.6,0,0,0-1.38-1.52,5.26,5.26,0,0,0-2.72-.58,5.84,5.84,0,0,0-2.94.63,4.32,4.32,0,0,0-1.65,1.69,6.49,6.49,0,0,0-.71,2.45c-.09.92-.13,1.91-.13,3A.47.47,0,0,0,280.25,71.81Z" transform="translate(-42 -34.65)"/><path class="cls-2" d="M333.53,100.81c-1.84.15-3.62.22-5.34.22q-6.15,0-9.53-2.54t-3.39-8.77V67.53a.47.47,0,0,0-.54-.53h-3.92a.79.79,0,0,1-.89-.89V53.37a.79.79,0,0,1,.89-.9h3.92a.47.47,0,0,0,.54-.53V40.8a.79.79,0,0,1,.89-.89h17.11a.79.79,0,0,1,.89.89V51.94a.47.47,0,0,0,.53.53H340a.79.79,0,0,1,.89.9V66.11A.79.79,0,0,1,340,67h-5.35a.47.47,0,0,0-.53.53V83.12c0,1.73.25,2.78.76,3.17a5.09,5.09,0,0,0,2.89.58h.54a.79.79,0,0,1,.89.89l-.36,11a.9.9,0,0,1-.31.72,3.23,3.23,0,0,1-.67.44A15.81,15.81,0,0,1,333.53,100.81Z" transform="translate(-42 -34.65)"/></svg>